<svg xmlns="http://www.w3.org/2000/svg" width="1100" height="460" viewBox="0 0 1100 460">
<style>
.bg { fill: #0f172a; }
.axis { stroke: #94a3b8; stroke-width: 1.5; }
.grid { stroke: #243041; stroke-width: 1; }
.title { fill: #e5e7eb; font: 700 26px Arial, sans-serif; }
.sub { fill: #94a3b8; font: 15px Arial, sans-serif; }
.tick { fill: #94a3b8; font: 14px Arial, sans-serif; }
.label { fill: #e5e7eb; font: 13px Arial, sans-serif; }
.legend { fill: #e5e7eb; font: 14px Arial, sans-serif; }
</style>
<rect class="bg" width="1100" height="460"/>
<text x="40" y="45" class="title">Shot-scaling curve (Test Macro-F1)</text>
<text x="40" y="70" class="sub">Prompt Adaptation stays strongest from 1-shot to 10-shot, while zero-shot stays flat.</text><line x1="90" y1="321.6" x2="1060" y2="321.6" class="grid"/><text x="78" y="326.6" text-anchor="end" class="tick">0.20</text><line x1="90" y1="273.2" x2="1060" y2="273.2" class="grid"/><text x="78" y="278.2" text-anchor="end" class="tick">0.25</text><line x1="90" y1="224.8" x2="1060" y2="224.8" class="grid"/><text x="78" y="229.8" text-anchor="end" class="tick">0.30</text><line x1="90" y1="176.5" x2="1060" y2="176.5" class="grid"/><text x="78" y="181.5" text-anchor="end" class="tick">0.35</text><line x1="90" y1="128.1" x2="1060" y2="128.1" class="grid"/><text x="78" y="133.1" text-anchor="end" class="tick">0.40</text><line x1="90" y1="79.7" x2="1060" y2="79.7" class="grid"/><text x="78" y="84.7" text-anchor="end" class="tick">0.45</text><line x1="90.0" y1="70" x2="90.0" y2="370" class="grid"/><text x="90.0" y="394" text-anchor="middle" class="tick">1</text><line x1="413.3" y1="70" x2="413.3" y2="370" class="grid"/><text x="413.3" y="394" text-anchor="middle" class="tick">4</text><line x1="1060.0" y1="70" x2="1060.0" y2="370" class="grid"/><text x="1060.0" y="394" text-anchor="middle" class="tick">10</text><line x1="90" y1="70" x2="90" y2="370" class="axis"/><line x1="90" y1="370" x2="1060" y2="370" class="axis"/><path d="M 90.0 138.9 L 413.3 138.9 L 1060.0 138.9" fill="none" stroke="#a78bfa" stroke-width="3"/><circle cx="90.0" cy="138.9" r="5" fill="#a78bfa"/><circle cx="413.3" cy="138.9" r="5" fill="#a78bfa"/><circle cx="1060.0" cy="138.9" r="5" fill="#a78bfa"/><path d="M 90.0 342.3 L 413.3 194.1 L 1060.0 121.4" fill="none" stroke="#60a5fa" stroke-width="3"/><circle cx="90.0" cy="342.3" r="5" fill="#60a5fa"/><circle cx="413.3" cy="194.1" r="5" fill="#60a5fa"/><circle cx="1060.0" cy="121.4" r="5" fill="#60a5fa"/><path d="M 90.0 290.4 L 413.3 177.1 L 1060.0 115.3" fill="none" stroke="#34d399" stroke-width="3"/><circle cx="90.0" cy="290.4" r="5" fill="#34d399"/><circle cx="413.3" cy="177.1" r="5" fill="#34d399"/><circle cx="1060.0" cy="115.3" r="5" fill="#34d399"/><path d="M 90.0 122.1 L 413.3 103.6 L 1060.0 82.7" fill="none" stroke="#fbbf24" stroke-width="3"/><circle cx="90.0" cy="122.1" r="5" fill="#fbbf24"/><circle cx="413.3" cy="103.6" r="5" fill="#fbbf24"/><circle cx="1060.0" cy="82.7" r="5" fill="#fbbf24"/><path d="M 90.0 262.4 L 413.3 165.7 L 1060.0 102.0" fill="none" stroke="#f87171" stroke-width="3"/><circle cx="90.0" cy="262.4" r="5" fill="#f87171"/><circle cx="413.3" cy="165.7" r="5" fill="#f87171"/><circle cx="1060.0" cy="102.0" r="5" fill="#f87171"/><line x1="780" y1="110" x2="808" y2="110" stroke="#60a5fa" stroke-width="4"/><circle cx="794" cy="110" r="5" fill="#60a5fa"/><text x="820" y="115" class="legend">Few-shot CE Probe</text><line x1="780" y1="138" x2="808" y2="138" stroke="#34d399" stroke-width="4"/><circle cx="794" cy="138" r="5" fill="#34d399"/><text x="820" y="143" class="legend">Few-shot MLP Probe</text><line x1="780" y1="166" x2="808" y2="166" stroke="#fbbf24" stroke-width="4"/><circle cx="794" cy="166" r="5" fill="#fbbf24"/><text x="820" y="171" class="legend">Few-shot Prompt Adaptation</text><line x1="780" y1="194" x2="808" y2="194" stroke="#f87171" stroke-width="4"/><circle cx="794" cy="194" r="5" fill="#f87171"/><text x="820" y="199" class="legend">Few-shot CoOp</text><line x1="780" y1="222" x2="808" y2="222" stroke="#a78bfa" stroke-width="4"/><circle cx="794" cy="222" r="5" fill="#a78bfa"/><text x="820" y="227" class="legend">Zero-shot CLIP</text></svg>