<svg xmlns="http://www.w3.org/2000/svg" width="1100" height="460" viewBox="0 0 1100 460">
<style>
.bg { fill: #0f172a; }
.axis { stroke: #94a3b8; stroke-width: 1.5; }
.grid { stroke: #243041; stroke-width: 1; }
.title { fill: #e5e7eb; font: 700 26px Arial, sans-serif; }
.sub { fill: #94a3b8; font: 15px Arial, sans-serif; }
.tick { fill: #94a3b8; font: 14px Arial, sans-serif; }
.label { fill: #e5e7eb; font: 14px Arial, sans-serif; }
.val { fill: #e5e7eb; font: 700 14px Arial, sans-serif; }
</style>
<rect class="bg" width="1100" height="460"/>
<text x="40" y="45" class="title">Test Macro-F1 comparison</text>
<text x="40" y="70" class="sub">Few-shot Prompt Adaptation is the strongest method in your notebook.</text><line x1="90" y1="310.0" x2="1060" y2="310.0" class="grid"/><text x="72" y="315.0" text-anchor="end" class="tick">0.1</text><line x1="90" y1="250.0" x2="1060" y2="250.0" class="grid"/><text x="72" y="255.0" text-anchor="end" class="tick">0.2</text><line x1="90" y1="190.0" x2="1060" y2="190.0" class="grid"/><text x="72" y="195.0" text-anchor="end" class="tick">0.3</text><line x1="90" y1="130.0" x2="1060" y2="130.0" class="grid"/><text x="72" y="135.0" text-anchor="end" class="tick">0.4</text><line x1="90" y1="70.0" x2="1060" y2="70.0" class="grid"/><text x="72" y="75.0" text-anchor="end" class="tick">0.5</text><line x1="90" y1="70" x2="90" y2="370" class="axis"/><line x1="90" y1="370" x2="1060" y2="370" class="axis"/><rect x="128.8" y="136.7" width="116.4" height="233.3" rx="8" fill="#a78bfa"/><text x="187.0" y="126.7" text-anchor="middle" class="val">0.3888</text><text x="187.0" y="396" text-anchor="middle" class="label">Zero-shot</text><text x="187.0" y="412" text-anchor="middle" class="label">CLIP</text><rect x="322.8" y="124.4" width="116.4" height="245.6" rx="8" fill="#60a5fa"/><text x="381.0" y="114.4" text-anchor="middle" class="val">0.4094</text><text x="381.0" y="396" text-anchor="middle" class="label">CE</text><text x="381.0" y="412" text-anchor="middle" class="label">Probe</text><rect x="516.8" y="121.9" width="116.4" height="248.1" rx="8" fill="#34d399"/><text x="575.0" y="111.9" text-anchor="middle" class="val">0.4135</text><text x="575.0" y="396" text-anchor="middle" class="label">MLP</text><text x="575.0" y="412" text-anchor="middle" class="label">Probe</text><rect x="710.8" y="100.2" width="116.4" height="269.8" rx="8" fill="#fbbf24"/><text x="769.0" y="90.2" text-anchor="middle" class="val">0.4496</text><text x="769.0" y="396" text-anchor="middle" class="label">Prompt</text><text x="769.0" y="412" text-anchor="middle" class="label">Adapt.</text><rect x="904.8" y="113.7" width="116.4" height="256.3" rx="8" fill="#f87171"/><text x="963.0" y="103.7" text-anchor="middle" class="val">0.4272</text><text x="963.0" y="396" text-anchor="middle" class="label">CoOp</text></svg>